<?xml version="1.0" encoding="UTF-8"?>
<svg width="288px" height="229px" viewBox="0 0 288 229" version="1.1" xmlns="http://www.w3.org/2000/svg" xmlns:xlink="http://www.w3.org/1999/xlink">
    <!-- Generator: sketchtool 52.2 (67145) - http://www.bohemiancoding.com/sketch -->
    <title>0AC4A740-69FB-4404-BB13-0B23E00E5E23</title>
    <desc>Created with sketchtool.</desc>
    <g id="new-main-page" stroke="none" stroke-width="1" fill="none" fill-rule="evenodd">
        <g id="Главная_new" transform="translate(-843.000000, -877.000000)" fill="#FFFFFF" fill-rule="nonzero">
            <g id="Group-21" transform="translate(0.000000, 854.000000)">
                <g id="Group-8" transform="translate(309.000000, 23.000000)">
                    <g id="box" transform="translate(534.000000, 0.000000)">
                        <path d="M200.564892,66.8860965 L102.83715,0.564696492 C101.728574,-0.188436251 100.272242,-0.188028049 99.1628497,0.564696492 L1.43510784,66.8860965 C0.537553193,67.4951339 0,68.5091078 0,69.5941088 L0,205.727444 C0,207.534555 1.46490388,209 3.27225812,209 L198.727742,209 C200.535096,209 202,207.534963 202,205.727444 L202,69.5941088 C202,68.5091078 201.462855,67.4951339 200.564892,66.8860965 Z M41,202 L41,167 L48.3455493,167 L48.3455493,184.5 C48.3455493,186.289617 49.7963872,187.740875 51.5863873,187.740875 L65.4136127,187.740875 C67.2032086,187.740875 68.6544507,186.290021 68.6544507,184.5 L68.6544507,167 L76,167 L76,202 L41,202 Z M34,83 L34,76 L167,76 L167,83 L34,83 Z M55,181 L55,167 L62,167 L62,181 L55,181 Z M76,160 L65.4136127,160 L51.5863873,160 L41,160 L41,125 L48.3455493,125 L48.3455493,142.5 C48.3455493,144.289617 49.7963872,145.740875 51.5863873,145.740875 L65.4136127,145.740875 C67.2032086,145.740875 68.6544507,144.290021 68.6544507,142.5 L68.6544507,125 L76,125 L76,160 Z M55,139 L55,125 L62,125 L62,139 L55,139 Z M83,202 L83,167 L90.3455493,167 L90.3455493,184.5 C90.3455493,186.289617 91.7963872,187.740875 93.5863873,187.740875 L107.413613,187.740875 C109.203613,187.740875 110.654451,186.290021 110.654451,184.5 L110.654451,167 L118,167 L118,202 L83,202 Z M97,181 L97,167 L104,167 L104,181 L97,181 Z M166.628214,201.999592 L160.080628,201.999185 L124.725131,201.999185 L124.725131,163.429987 C124.725131,161.624987 123.259948,160.161252 121.451338,160.161252 L82.8220474,160.161252 L82.8220474,121.591647 C82.8220474,119.786647 81.3564562,118.322912 79.5482541,118.322912 L40.9189639,118.322912 L40.9189639,89.994963 L160.080628,89.994963 L166.628214,89.994963 L170.33854,89.994963 C172.146743,89.994963 173.612334,88.5316364 173.612334,86.726228 L173.612334,72.7803865 C173.612334,70.9753859 172.147151,69.5116515 170.33854,69.5116515 L30.6614596,69.5116515 C28.8536658,69.5116515 27.3876663,70.9749782 27.3876663,72.7803865 L27.3876663,86.7266358 C27.3876663,88.5316364 28.8532575,89.9953707 30.6614596,89.9953707 L34.3717858,89.9953707 L34.3717858,202 L6,202 L6,71.0259439 L100.499796,7 L194.999592,71.0259439 L194.999592,201.999592 L166.628214,201.999592 Z" id="big_house" opacity="0.100000001"></path>
                        <g id="small_house" transform="translate(138.000000, 117.000000)">
                            <g id="001-transport" transform="translate(0.000000, 23.000000)">
                                <path d="M17.8,0 L14.8333333,0 L0,0 L0,71.2 L0,74.1666667 L0,89 L71.2,89 L74.1666667,89 L89,89 L89,17.8 L89,14.8333333 L89,0 L17.8,0 Z M71.2,57.91675 L57.91675,71.2 L45.3306667,71.2 L71.2,45.3306667 L71.2,57.91675 Z M71.2,62.1116167 L71.2,71.2 L62.1116167,71.2 L71.2,62.1116167 Z M41.1343167,71.2 L28.5482333,71.2 L71.2,28.5482333 L71.2,41.1343167 L41.1343167,71.2 Z M71.2,24.3533667 L24.3533667,71.2 L17.8,71.2 L17.8,65.1672833 L65.1658,17.8 L71.2,17.8 L71.2,24.3533667 Z M17.8,60.9709333 L17.8,48.38485 L48.38485,17.8 L60.9709333,17.8 L17.8,60.9709333 Z M17.8,44.1899833 L17.8,31.6024167 L31.6024167,17.8 L44.1899833,17.8 L17.8,44.1899833 Z M17.8,27.40755 L17.8,17.8 L27.40755,17.8 L17.8,27.40755 Z M2.96666667,2.96666667 L14.8333333,2.96666667 L14.8333333,17.8 L14.8333333,30.3742167 L14.8333333,51.353 L14.8333333,63.9390833 L14.8333333,71.2 L2.96666667,71.2 L2.96666667,2.96666667 Z M71.2,86.0333333 L2.96666667,86.0333333 L2.96666667,74.1666667 L14.8333333,74.1666667 L17.8,74.1666667 L25.5815667,74.1666667 L38.16765,74.1666667 L59.14495,74.1666667 L71.2,74.1666667 L71.2,86.0333333 Z M86.0333333,86.0333333 L74.1666667,86.0333333 L74.1666667,71.2 L74.1666667,59.14495 L74.1666667,38.16765 L74.1666667,25.5815667 L74.1666667,17.8 L86.0333333,17.8 L86.0333333,86.0333333 Z M74.1666667,14.8333333 L71.2,14.8333333 L63.9376,14.8333333 L51.3515167,14.8333333 L30.3742167,14.8333333 L17.8,14.8333333 L17.8,2.96666667 L86.0333333,2.96666667 L86.0333333,14.8333333 L74.1666667,14.8333333 Z" id="Shape"></path>
                                <circle id="Oval" cx="81.5" cy="5.5" r="1.5"></circle>
                                <circle id="Oval" cx="75.5" cy="5.5" r="1.5"></circle>
                                <circle id="Oval" cx="81.5" cy="11.5" r="1.5"></circle>
                                <circle id="Oval" cx="75.5" cy="11.5" r="1.5"></circle>
                                <circle id="Oval" cx="82.5" cy="81.5" r="1.5"></circle>
                                <circle id="Oval" cx="82.5" cy="75.5" r="1.5"></circle>
                                <circle id="Oval" cx="77.5" cy="81.5" r="1.5"></circle>
                                <circle id="Oval" cx="77.5" cy="75.5" r="1.5"></circle>
                                <circle id="Oval" cx="7.5" cy="82.5" r="1.5"></circle>
                                <circle id="Oval" cx="13.5" cy="82.5" r="1.5"></circle>
                                <circle id="Oval" cx="7.5" cy="77.5" r="1.5"></circle>
                                <circle id="Oval" cx="13.5" cy="77.5" r="1.5"></circle>
                                <circle id="Oval" cx="5.5" cy="7.5" r="1.5"></circle>
                                <circle id="Oval" cx="5.5" cy="13.5" r="1.5"></circle>
                                <circle id="Oval" cx="11.5" cy="7.5" r="1.5"></circle>
                                <circle id="Oval" cx="11.5" cy="13.5" r="1.5"></circle>
                            </g>
                            <g id="001-transport" transform="translate(99.000000, 61.000000)">
                                <path d="M10.2,0 L8.5,0 L0,0 L0,40.8 L0,42.5 L0,51 L40.8,51 L42.5,51 L51,51 L51,10.2 L51,8.5 L51,0 L10.2,0 Z M40.8,33.18825 L33.18825,40.8 L25.976,40.8 L40.8,25.976 L40.8,33.18825 Z M40.8,35.59205 L40.8,40.8 L35.59205,40.8 L40.8,35.59205 Z M23.57135,40.8 L16.3591,40.8 L40.8,16.3591 L40.8,23.57135 L23.57135,40.8 Z M40.8,13.9553 L13.9553,40.8 L10.2,40.8 L10.2,37.34305 L37.3422,10.2 L40.8,10.2 L40.8,13.9553 Z M10.2,34.9384 L10.2,27.72615 L27.72615,10.2 L34.9384,10.2 L10.2,34.9384 Z M10.2,25.32235 L10.2,18.10925 L18.10925,10.2 L25.32235,10.2 L10.2,25.32235 Z M10.2,15.70545 L10.2,10.2 L15.70545,10.2 L10.2,15.70545 Z M1.7,1.7 L8.5,1.7 L8.5,10.2 L8.5,17.40545 L8.5,29.427 L8.5,36.63925 L8.5,40.8 L1.7,40.8 L1.7,1.7 Z M40.8,49.3 L1.7,49.3 L1.7,42.5 L8.5,42.5 L10.2,42.5 L14.6591,42.5 L21.87135,42.5 L33.89205,42.5 L40.8,42.5 L40.8,49.3 Z M49.3,49.3 L42.5,49.3 L42.5,40.8 L42.5,33.89205 L42.5,21.87135 L42.5,14.6591 L42.5,10.2 L49.3,10.2 L49.3,49.3 Z M42.5,8.5 L40.8,8.5 L36.6384,8.5 L29.42615,8.5 L17.40545,8.5 L10.2,8.5 L10.2,1.7 L49.3,1.7 L49.3,8.5 L42.5,8.5 Z" id="Shape"></path>
                                <circle id="Oval" cx="47" cy="3" r="1"></circle>
                                <circle id="Oval" cx="43" cy="3" r="1"></circle>
                                <circle id="Oval" cx="47" cy="7" r="1"></circle>
                                <circle id="Oval" cx="43" cy="7" r="1"></circle>
                                <circle id="Oval" cx="47" cy="47" r="1"></circle>
                                <circle id="Oval" cx="47" cy="43" r="1"></circle>
                                <circle id="Oval" cx="45" cy="47" r="1"></circle>
                                <circle id="Oval" cx="45" cy="43" r="1"></circle>
                                <circle id="Oval" cx="4" cy="47" r="1"></circle>
                                <circle id="Oval" cx="8" cy="47" r="1"></circle>
                                <circle id="Oval" cx="4" cy="45" r="1"></circle>
                                <circle id="Oval" cx="8" cy="45" r="1"></circle>
                                <circle id="Oval" cx="3" cy="4" r="1"></circle>
                                <circle id="Oval" cx="3" cy="8" r="1"></circle>
                                <circle id="Oval" cx="7" cy="4" r="1"></circle>
                                <circle id="Oval" cx="7" cy="8" r="1"></circle>
                            </g>
                            <g id="001-transport" transform="translate(99.000000, 0.000000)">
                                <path d="M10.2,0 L8.5,0 L0,0 L0,40.8 L0,42.5 L0,51 L40.8,51 L42.5,51 L51,51 L51,10.2 L51,8.5 L51,0 L10.2,0 Z M40.8,33.18825 L33.18825,40.8 L25.976,40.8 L40.8,25.976 L40.8,33.18825 Z M40.8,35.59205 L40.8,40.8 L35.59205,40.8 L40.8,35.59205 Z M23.57135,40.8 L16.3591,40.8 L40.8,16.3591 L40.8,23.57135 L23.57135,40.8 Z M40.8,13.9553 L13.9553,40.8 L10.2,40.8 L10.2,37.34305 L37.3422,10.2 L40.8,10.2 L40.8,13.9553 Z M10.2,34.9384 L10.2,27.72615 L27.72615,10.2 L34.9384,10.2 L10.2,34.9384 Z M10.2,25.32235 L10.2,18.10925 L18.10925,10.2 L25.32235,10.2 L10.2,25.32235 Z M10.2,15.70545 L10.2,10.2 L15.70545,10.2 L10.2,15.70545 Z M1.7,1.7 L8.5,1.7 L8.5,10.2 L8.5,17.40545 L8.5,29.427 L8.5,36.63925 L8.5,40.8 L1.7,40.8 L1.7,1.7 Z M40.8,49.3 L1.7,49.3 L1.7,42.5 L8.5,42.5 L10.2,42.5 L14.6591,42.5 L21.87135,42.5 L33.89205,42.5 L40.8,42.5 L40.8,49.3 Z M49.3,49.3 L42.5,49.3 L42.5,40.8 L42.5,33.89205 L42.5,21.87135 L42.5,14.6591 L42.5,10.2 L49.3,10.2 L49.3,49.3 Z M42.5,8.5 L40.8,8.5 L36.6384,8.5 L29.42615,8.5 L17.40545,8.5 L10.2,8.5 L10.2,1.7 L49.3,1.7 L49.3,8.5 L42.5,8.5 Z" id="Shape"></path>
                                <circle id="Oval" cx="47" cy="3" r="1"></circle>
                                <circle id="Oval" cx="43" cy="3" r="1"></circle>
                                <circle id="Oval" cx="47" cy="7" r="1"></circle>
                                <circle id="Oval" cx="43" cy="7" r="1"></circle>
                                <circle id="Oval" cx="47" cy="47" r="1"></circle>
                                <circle id="Oval" cx="47" cy="43" r="1"></circle>
                                <circle id="Oval" cx="45" cy="47" r="1"></circle>
                                <circle id="Oval" cx="45" cy="43" r="1"></circle>
                                <circle id="Oval" cx="4" cy="47" r="1"></circle>
                                <circle id="Oval" cx="8" cy="47" r="1"></circle>
                                <circle id="Oval" cx="4" cy="45" r="1"></circle>
                                <circle id="Oval" cx="8" cy="45" r="1"></circle>
                                <circle id="Oval" cx="3" cy="4" r="1"></circle>
                                <circle id="Oval" cx="3" cy="8" r="1"></circle>
                                <circle id="Oval" cx="7" cy="4" r="1"></circle>
                                <circle id="Oval" cx="7" cy="8" r="1"></circle>
                            </g>
                        </g>
                    </g>
                </g>
            </g>
        </g>
    </g>
</svg>